<?xml version="1.0" encoding="UTF-8"?>
<svg id="icons" xmlns="http://www.w3.org/2000/svg" xmlns:xlink="http://www.w3.org/1999/xlink" viewBox="0 0 384 384">
  <defs>
    <style>
      .cls-1 {
        fill: #231f20;
      }

      .cls-2 {
        clip-path: url(#clippath);
      }
    </style>
    <clipPath id="clippath">
      <path class="cls-1" d="M3.47,266.54c3.54.31,8.57-.77,12.04-.06l2.91-1.68,3.68-.22c1.91.21,6.06-1.81,8.96-.22,2.24.87,1.88-1.08,1.88-1.08,2.53-.4,5.23.23,8.05-.28.84-.48,2.14-1.23,3.44-1.23,1.59.3,4.35.1,5.2-.87.62-.1,10.3-.86,11.48.22,3.84.11,9.53.15,13.43-1.3,6.65-.12,14.7.23,21.36.22,1.52-.7,2.51-2.12,4.64-1.3,2.87.08,6.3.08,9.1,0,3.1.49,6.75,1.98,9.32,3.09,0,0,4.46,0,4.46,0,3.67,1.36,4.95,5.03,6.16,8.39.94,1.57,3.03,5.3,3.93,6.93l3,1.73,1.35,3.04,2.98,1.72,1.01,2.02,2.89,1.67,2.02,3.25,1.88,1.08,1.43,2.73,2.47-1.43,1.95.87c1.35,3.33,4.74,4.44,7.8,5.63-.13.96-.27,2.94-.22,3.9l2.17,1.73.87,2.17c-.92.87-2.75,2.17-4.05,2.28-3.04,1.72-7.35,4.2-10.68,6.61-1.32,1.16-1.89,3.51-3.25,4.12-1.55.69-4.81,1.53-6.5,1.73-1.18,1.16-2.86,3.88-3.47,5.42l-3.25,1.52h-4.25c-2.66,1.22-6.4,5.26-8.1,7.58-1.36.36-3.85,1.34-4.98,2.17-5.55,1.28-14.05,3.38-18.63,6.93-4.86.54-11.67,1.52-16.25,3.25-3.15-.02-7.89.06-11.01-.1l-2.42,1.4s-6.07-1.95-6.07-1.95c-5.13.08-10.69-.7-15.82-2.6-6.77-3.63-13.2-5.34-19.72-8.88-3.03-.68-8.74-2.95-11.27-4.77.48-3.19-2.2-7.04-3.9-9.53h-2.51l-2.26-1.3v-1.73c-.74-1.17-2.32-3.01-3.68-3.47-.92-1.56-2.45-4.79-3.03-6.5,0-4.05,0-9.6,0-13.65,0-8.95,0-18.99,0-27.95l3.47-1.3ZM160.22,276.45c-.64,1.41-1.03,3.4-1.84,4.71-.39,1.16-1.61,2.16-1.9,3.52-.44.99-1.26,1.19-1.35,2.27-.75,1.55-2.65,1.46-4.12.92-.92-.74-1.41-1.11-2.38-1.25-.06,6.02,3.31,2.84,6.61,4.77,1.4,1.14,2.34,3.86,3.85,4.71,3.51.64,4.51-.74,5.31-4.12.16-.72,1.2-3.7.7-4.39-.2-1.04-.71-3.27-.49-4.44-.78-2.71-2.05-5.73-3.3-8.23l-1.08,1.52ZM8.77,228.3c-.71.81-2.32,2.4-3.47,2.49-6.18,10.69,4.16,6.94-2.15,15.17.19.04-.23,4.96,0,4.66,1.39.25,2.61-.47,4.21-.87.54,0,3.36.33,3.36.33,0,0,.76.65,2.82.54s2.6-.08,3.14.01c2.46-.28,5.81.43,8.45.08,2.33-.8,3.29-.43,5.63-.42,3.33-.44,8.99-1.35,11.48-1.19,5.16-.37,10.31-.27,15.38-1.41,2.85-.02,3.42.03,5.74.11.85.39,3.02.49,3.68.22-1.84-2.23-3.26-2.68-6.17-2.92-1.92-.95-4.57-3.27-5.74-4.77-2.21-1.28-2.75-4.11-5.63-1.19-1.53-1.83-2.34-3.2-3.14-5.63-.12-2.71-.56-3.29-1.84-5.2-.43-.43.11-1.73-1.41-1.08-2.05.9-2.23,1.36-3.57,1.62-1.58-1.61-5.67-2.57-7.69-2.38-.43-.11-1.72-.65-1.73,0s-.87.54-1.52.76c-2.01.83-6.07,1.54-7.91,1.3,0,0-.22.65-.97,0-2.54-2.87-8.1-.63-10.94-.22ZM174.63,78.91c-3.05,2.83-4.91,5.21-9.53,7.15-1.73.65-4.12.87-6.28,2.6-5.49,5.21-11.83,7.51-17.98,11.05-6.33,4.35-13.52,7.57-19.07,12.35-5.31,3.85-11.15,5.25-16.68,8.45-6.86,5-14.88,8.3-21.23,13.87-6.67,4.75-15.35,5.91-22.32,9.96-5.72,3.48-9.95,7.98-15.82,11.05-1.26-.17-10.72,4.62-10.66,4.55-1.62,4.6-5.79,8.9-10.16,11.5-3.21,2.22-6.69,6.06-9.51,8.43-.65.43-2.89-.87-2.53,1.52.72,4.48-2.33,6.69-3.76,9.97-.43,1.3,1.08,3.03-.43,4.12-2.73,2.64-2.12,5.14-3.47,8.73-.43,2.32-.87,4.49-1.08,5.36s-.83-.22-1.06,2.82-.89,4.98-.89,4.98c0,0-.65,1.52-1.08,2.82-.47,2.64.23,3.02-.19,4.98,1.05-.37,5.05-1.24,6.69-2.39,2.75-1.89,3.03-1.86,6.5-3.03,2.52-1.02,6.82-.79,9.1-.87,1.37-.99,7.86-.96,8.45-.87,4.57-.02,9.59.19,13.46,3.26.44.26.41,3.46.62,3.89.37,1.1,2.52,5.02,3.03,5.63v4.33s1.95-.43,2.82,0,2.82-.87,3.47,0,1.52.54,2.17,1.35,1.08,2.84,1.73,2.04,0-.29,1.95,0c1.95.29.69-.44,1.95.29,3.11,1.7,4.82,1.71,6.5,3.9,0,0,3.03-.43,3.68,0s-.43.87,1.73,0,2.24-.91,3.33-1.54,1.93-3,2.95-2.65c4.26-.18,9.04-5.12,11.92-7.08,2.18-2.23,5.68-3.95,8.57-5.86,3.42-5.72,8.46-7.04,13.74-9.74.87-.65,4.14-1.92,4.78-2.91s-1.92.49,2.43-2.03c8.9-5.18,12.03-6.9,19.22-12.18,8.86-7.83,12.65-6.43,23.4-7.8,3.6-2.58,8.94-5.47,13.22-6.72,1.81-1.56,5.89-4.1,8.02-5.2,0,0,2.17-2.82,2.17-2.82,0-2.18,0-7.92,0-10.18,0,0,1.52-6.5,1.52-7.15.74-5.6,4.35-13.98,4.55-19.5,0,0-.87-3.9-.87-3.9l-2.6-4.33c-1.68-3.71-4.47-8.57-5.42-12.57-.96-3.1-1.88-9.33-1.52-12.57-1.14-3.09-3.28-10.16-3.47-13.43-1.17-3.8-3.73-8.47-3.68-12.57l-2.38-1.08ZM82.55,246.61l5.63.22s3.68-.22,4.82-1.07,2.98,1.72,2.98,1.72c8.78-1.09,18.32.18,27.08.43,2.93.99,6.98,3.43,10.18,2.99l2.38,2.21,1.73,4.33c1.43,2.05,4.74,6.84,6.07,8.88,0,0,1.52,4.55,1.52,4.55l4.63,5.01,2.96,1.71,4.41.87v-1.95c2.78-4.07,4.41-9.98,5.56-14.73.85-3.04,2.94-8.11,2.77-11.7-.48-.65,1.78-3.9,1.78-3.9,2.2-5.8,4.06-11.67,5.85-17.77.74-2.67,1.89-5.14,2.82-7.37,0,0,1.73-4.77,1.73-4.77l2.38-2.65c1.17-3.16,2.46-8.97,4.33-12.08.93-3.68,3.69-8.06,4.77-11.7,0,0,1.98-4.98,1.98-4.98,0,0,0-3.78,0-3.78-4.53,2.6-9.92,6-15.2,7.68-2.27,1.32-4.34,4.11-6.28,5.42-4.32,1.17-10.77,3.56-15.52,4.96-1.62.94-6.16,2.96-7.22,4.15,0,0-1.73,1.08-2.38.93s-1.52,1.45-2.17,1.45c-1.87,1.27-4.79,4.2-7.37,5.42-2.35,1.57-6.3,1.97-8.23,3.9-2.88,1.94-5.25,3.64-7.37,5.63-2.5.84-5.59,2.91-8.45,4.55-4.11,3.29-9.03,8.23-12.99,11.32-6.36,1.93-14.13,7.44-20.38,9.7l5.2.43ZM193.37,182.37c-.38,2.8-1.63,6.54-2.46,9.59-.94,4.23-1.81,9.17-4.69,12.25-.71,1.62-2.43,6.5-3.09,8.88-1.81,3.98-2.72,5.39-4.39,10.07-1.14,2.6-.65,2.11-1.14,3.9-.77,2.82-2.38,3.95-3.74,6.34-.81,1.14-.65,2.11-.65,3.09-.39,3.01-2.34,7.56-3.09,10.56-1.44,2.31-.58,2.72-1.62,5.85-.83,3.61-.61,3.97-1.46,6.99-.21,1.98-.45,4.47-1.95,6.17-.81,1.46-.42,2.11-1.34,2.64s-.77.44-.77,1.74-.16,3.74,0,4.5c-.02,1.84,3.93,6.88,4.55,8.34-1.35.31-2.02,3.32-1.46,4.88.16,1.14,1.75.71,3.9,1.95s0,0-.26.97c-.36,1.96.26,3.1.09,5.11.33,1.05,2.76,1.72,2.76,1.72,12.1-5.63,21.62-12.55,33.01-20.27,7.58-4.84,13.03-8.17,20.35-13.7,7.07-4.82,14.4-7.62,21.38-12.83,4.16-3.03,8.4-3.68,11.21-7.89.81-1.23,2.27-.72,2.76-1.04,2.87-1.52,7.92-5.57,10.72-6.66.25-.4,5.87-3.77,6.82-4.71,2.11-1.3,7.03-3.11,8.61-4.55l1.46-3.74c-.21-1.01-3.43-2.61-4.22-3.09-2.28-.95-6.75-3.08-8.94-4.23-4.32-1.1-8.83-5.13-12.67-7.15-3.75-4.24-7.92-11.34-10.56-16.74-1.24-2.13-2.57-5.12-3.93-7.26-.33-.19-2.9-1.67-2.9-1.67-2.16-.97-8.97-2.01-11.21-2.44-2.79.37-8.67-.76-11.37-1.5-5.47.8-17.13-1.32-22.91-.29-.65.65-5.63,0-5.63,0,0,0-1.03,3.57-1.19,4.22ZM197.76,151.33c0,3.11-1.29,7.79-1.19,10.89,0,0-1.9,6.66-2.01,7.31-.08,1.26.05,4.33,0,5.52,1.34-.1,7.15.37,8.4,1.13,2.82-.29,6.49.24,10.07-.15,1.14-.32,1.14.32,2.44-.16s2.31.54,3.25,0,0,0,.16-.65c-.02-2.13.48-4.48-.74-6.66-.41-2.13.1-7.73-.07-9.75-1.14-1.11-.77-5.72-.81-7.31.63-1.33.98-4.07.81-5.52l-3.41-2.92s-3.57-1.14-4.06-1.14-4.22,1.46-5.21,1.66-2.76,1.59-2.76,1.59l-3.57.81-1.3,5.36ZM187.68,96.9c0,1.91,0,5.77,0,7.64.33.85,1.59,3.32,1.3,4.22-.16.69.68,4.75.98,6.01-.5,2.65-.78,4.93-.65,7.64.67,2.47,3.59,6.07,4.39,8.77.33.97,0,0,.82.81.93,1.76,1.53,3.73,2.06,5.52-.05.81.7.98,1.19,1.3s.32,3.09.32,3.09l.65,1.62h3.25c2.17-.74,5.72-3.1,7.96-3.74,1.18.19,5.33-.41,6.01.97l2.27,1.14c.48-1.35,1.47-2.05.91-3.9-.62-.41,3.25-11.93,2.01-10.24-.28-2.05,2.21-9.57,1.63-12.51-.09-1.84.1-3.89.49-4.87,2.68-1.34,3.97-5.41,6.17-7.64,1.06-4-5.26-4.53-8.94-6.01-2.28-.97-2.6-.97-3.58-1.14-4.07-.4-8.8-2.21-12.19-3.66-2.5-.76-7.63-2.1-10.18-2.68l-6.88,5.36v2.27ZM231.07,104.05c-1.72,2.25-2.76,5.6-5.15,7.31-.7,2.12-1.69,6.4-1.34,8.61-.33,2.03-1.15,4.77-1.95,6.99-.16.49,0,1.79,0,1.79-.54.74-.61,4.5-.65,5.2,0,0,.16,4.06.16,4.06l-1.14,3.9c-.74,1.73-2.32,5.72-1.85,7.64-.35,4.09.82,9.53,1.69,13.49,0,3.85,0,9.28,0,13.15,3.74-.18,9.29,1.1,13,1.67,2.18.18,8.6,1.09,10.55,2.35l1.31-.76c.65-2.21.38-3.31,2.76-1.59,3.98,8.69,10.61,17.39,13.97,26.35,1.82,2.03,6.36,5.27,9.1,6.6,1.7.63,5.44,3.58,6.99,4.22,2.76,1.33,10.16,4.45,13.65,5.04,1.22-.58,8.22-3.53,9.42-5.36,6.12-2.75,6.29-3.39,13.49-6.99,4.55-2.45,5.72-2.17,7.96-4.55,2.09-2.79,3.8-3.61,6.99-6.5,2.74-1.93,5.28-3.04,7.47-5.69.67-2.46-1.9-3.71-3.25-5.36-.65-.98-1.62-3.25-1.62-4.54s-.97-.5-1.95-1.8-.65-1.3-1.46-3.1c-2.47-6.62-6.59-10.76-8.77-17.7-.65-1.95,0,0-.16-.97s-1.14-.97-2.11-2.27c-3.12-4.83-6.49-6.6-11.37-10.07-1.95-1.79-3.25-1.46-4.22-1.62s.49-.81,0-2.44-1.14-1.95-1.79-2.27c-3.29-.92-7.21-2.25-9.91-5.36-2.84-2.32-6.79-4.8-7.31-8.77-.16-.81-2.28-3.09-2.28-3.9-.26-3.1-1.23-6.61-2.44-8.94l-6.66-3.41c-4.13-.72-9.85-2.61-14.46-3.58-7.29-1.35-18.76-4.89-26-4.39l-.65,3.57ZM282.52,113.04v5.74l2.17,2.38v2.92c1.2.63,3.17,2.97,4.01,4.33,2.12,1.61,3.61,1.96,5.63,3.9,1.91,2.4,5.46,3.37,7.37.87.33-1.83-.69-6.23-.76-7.91,1.25-.85.33-2.82.76-4.12.87-2.02,1.9-3.29,2.06-5.52-.35-2.46-1.03-4.82,0-7.15.76-.87.76-1.73.76-1.73-2.52.66-5,3.21-7.8,3.57-4.78.07-9.71,1.69-14.19,2.71ZM179.72,77.72l.65,2.6c-1.56,3.09,2.27,6.89,2.92,9.86-1.14,2.74,2.28.97,4.39-.22,3.47-2.77,8.48-6.68,12.62-4.66,3.03,2.67,7.75,4.08,11.27,5.85.76.32,1.19.97,2.49,1.08s.22-.87,2.27,0c4.89,1.99,7.14,3.63,12.13,4.55,3.86.59,7.62-1.36,10.72.12.97.53,5.09,2.04,5.52,2.37s-1.73,0,2.38,1.19,4.73,1.55,4.73,1.55c3.07-.73,7.02.74,10,2.03,2.35.67,6.23,1.62,8.45,1.62.74.86,6.54,1.78,7.04,2.06,1.2.2,7.68,1.35,8.45,1.41,3.41-.69,7.24-2.07,10.4-2.38,7.36-3.63,8.37-7.27,11.81-14.08,1.23-2.01,3.23-4.46,4.23-6.93.66-2.3,2.6-4.08,3.47-5.96.32-2.51,2.86-9.21,3.47-11.05,0,0-.87-3.57,0-5.31s1.08-3.03,1.08-3.03c-.46-2.41-.86-5.24-1.73-8.02-.33-.76-.54-2.17-.76-2.6-4.76-4.74.66-10.24.43-15.6-4.43.18-10.84-.18-15.38-.08-2.21-.33-5.67,1.17-7.8.62-.76-.22-6.28-.22-6.61-.22s-1.52-.96-2.27-.59c-4.68.66-11.59,1.51-15.71,2.32,0,0-.17,1.04-1.28.74-2.47-.37-4.75,0-7.17.35-5.05,2.11-11.85.94-16.63,3.13-3.93,1.53-8.02,6.85-12.3,7.38,0,0,1.61-.7-.71.41-2.32,1.11-5.25,2.3-5.25,2.3-1.47.79-4.09,3.06-5.63,3.9-4.54,2.31-10.15,5.15-14.66,7.3-1.82.87-4.17,3.08-6.24,4.09-4.59,2.67-11.27,5.59-16.04,7.46-.47-.14-3.25,1.68-3.47,1.63,0,0-1.3,1.52-1.3,1.52M321.41,51.24c.14,1.42,0,2.41,1.14,3.57.81.65,0,1.14.98,2.44s.81,1.62,1.3,2.44c.47,1.2-.71,5.2.49,6.66-.02,1.99-1.42,5.65-1.14,8.29-.03,3.49,0,2.68-1.14,5.36-.49,1.14-.06,1.79-1.46,2.6s0,0-.16.81-.81,1.3-1.19,2.44c-.67,1.72-2.34,4.02-2.71,6.01-.33,1.3-1.14,1.3-1.14,1.3,0,0-1.46,2.6-1.95,4.22-.79,2.22-2.13,1.72-2.92,3.74-.65.81-.65,1.3-.81,2.44-.12,1.47-2.76,3.93-1.95,5.58-1.48,2.37-3.42,4.16-2.92,7.58,0,1.62,0,0-.33,1.14-.35.73-.1,4.27-.97,4.39,0,0-.49,1.62-1.37,2.44s0,.97,0,.97c0,0,.88,1.14,1.37,2.76.59,1.77-.48,3.22,0,4.55.32.65-1.14,1.79-1.3,2.92s0,1.46,0,2.76c.77.93,3.92,3.27,5.69,3.25,2.27,2.93,5.22,5.35,8.77,7.64,1.46,1.08,3.42,2.37,3.27,4.23,1.85,1.77,2.54,4.55,4.04,6.5.48,1.18,3.73,5.99,5.2,8.12.16.65.49.81,1.46,2.28s.16.81.49,2.92c.76,4.18-.35,1.4,1.3,5.2,1.51,2.55,1.68,3.15,2.12,6.01.17,1.3,1.13.65,2.06,0s3.13-1.14,3.13-1.14c2.24-1.82,3.52-2.05,6.18-5.82,1.79-2.73,1.46-.84,1.46-.84,2.6-3.1,9.29-7.25,10.85-11.72.45-1.32,1.66-.96,2.15-1.93.19.36,1.98-5.39,2.6-4.31,0,0,2.11-3.81,4.39-7.55,2.27-3.74.97-1.62.97-1.62.48-1.86,2.07-5.6,3.41-7.96,1.75-9.09,1.82-16.8,6.17-25.51,1.46-2.6,0-2.11.49-3.25s.97-2.44,1.62-4c1.26-4.15-.26-6.93.65-11.11.42-2.24.17-8.79,2.11-10.72.47-2.05-.08-6.87-.16-9.1-2.36-5.8-6.53-12.56-8.45-18.52-5.99-7.33-3.7-6.26-14.79-12.19-6.66-3.57-2.11-.97-2.93-1.3s-1.14-.97-2.6-1.95-2.27-1.46-5.36-2.27c-8.35-3.55-14.35-4.56-24.05-4.22-3.9,0-.97,1.79-1.14,2.44-3.06,4.16-4.03,5.43-2.92,11.05Z"/>
    </clipPath>
  </defs>
  <path class="cls-1" d="M3.47,266.54c3.54.31,8.57-.77,12.04-.06l2.91-1.68,3.68-.22c1.91.21,6.06-1.81,8.96-.22,2.24.87,1.88-1.08,1.88-1.08,2.53-.4,5.23.23,8.05-.28.84-.48,2.14-1.23,3.44-1.23,1.59.3,4.35.1,5.2-.87.62-.1,10.3-.86,11.48.22,3.84.11,9.53.15,13.43-1.3,6.65-.12,14.7.23,21.36.22,1.52-.7,2.51-2.12,4.64-1.3,2.87.08,6.3.08,9.1,0,3.1.49,6.75,1.98,9.32,3.09,0,0,4.46,0,4.46,0,3.67,1.36,4.95,5.03,6.16,8.39.94,1.57,3.03,5.3,3.93,6.93l3,1.73,1.35,3.04,2.98,1.72,1.01,2.02,2.89,1.67,2.02,3.25,1.88,1.08,1.43,2.73,2.47-1.43,1.95.87c1.35,3.33,4.74,4.44,7.8,5.63-.13.96-.27,2.94-.22,3.9l2.17,1.73.87,2.17c-.92.87-2.75,2.17-4.05,2.28-3.04,1.72-7.35,4.2-10.68,6.61-1.32,1.16-1.89,3.51-3.25,4.12-1.55.69-4.81,1.53-6.5,1.73-1.18,1.16-2.86,3.88-3.47,5.42l-3.25,1.52h-4.25c-2.66,1.22-6.4,5.26-8.1,7.58-1.36.36-3.85,1.34-4.98,2.17-5.55,1.28-14.05,3.38-18.63,6.93-4.86.54-11.67,1.52-16.25,3.25-3.15-.02-7.89.06-11.01-.1l-2.42,1.4s-6.07-1.95-6.07-1.95c-5.13.08-10.69-.7-15.82-2.6-6.77-3.63-13.2-5.34-19.72-8.88-3.03-.68-8.74-2.95-11.27-4.77.48-3.19-2.2-7.04-3.9-9.53h-2.51l-2.26-1.3v-1.73c-.74-1.17-2.32-3.01-3.68-3.47-.92-1.56-2.45-4.79-3.03-6.5,0-4.05,0-9.6,0-13.65,0-8.95,0-18.99,0-27.95l3.47-1.3ZM160.22,276.45c-.64,1.41-1.03,3.4-1.84,4.71-.39,1.16-1.61,2.16-1.9,3.52-.44.99-1.26,1.19-1.35,2.27-.75,1.55-2.65,1.46-4.12.92-.92-.74-1.41-1.11-2.38-1.25-.06,6.02,3.31,2.84,6.61,4.77,1.4,1.14,2.34,3.86,3.85,4.71,3.51.64,4.51-.74,5.31-4.12.16-.72,1.2-3.7.7-4.39-.2-1.04-.71-3.27-.49-4.44-.78-2.71-2.05-5.73-3.3-8.23l-1.08,1.52ZM8.77,228.3c-.71.81-2.32,2.4-3.47,2.49-6.18,10.69,4.16,6.94-2.15,15.17.19.04-.23,4.96,0,4.66,1.39.25,2.61-.47,4.21-.87.54,0,3.36.33,3.36.33,0,0,.76.65,2.82.54s2.6-.08,3.14.01c2.46-.28,5.81.43,8.45.08,2.33-.8,3.29-.43,5.63-.42,3.33-.44,8.99-1.35,11.48-1.19,5.16-.37,10.31-.27,15.38-1.41,2.85-.02,3.42.03,5.74.11.85.39,3.02.49,3.68.22-1.84-2.23-3.26-2.68-6.17-2.92-1.92-.95-4.57-3.27-5.74-4.77-2.21-1.28-2.75-4.11-5.63-1.19-1.53-1.83-2.34-3.2-3.14-5.63-.12-2.71-.56-3.29-1.84-5.2-.43-.43.11-1.73-1.41-1.08-2.05.9-2.23,1.36-3.57,1.62-1.58-1.61-5.67-2.57-7.69-2.38-.43-.11-1.72-.65-1.73,0s-.87.54-1.52.76c-2.01.83-6.07,1.54-7.91,1.3,0,0-.22.65-.97,0-2.54-2.87-8.1-.63-10.94-.22ZM174.63,78.91c-3.05,2.83-4.91,5.21-9.53,7.15-1.73.65-4.12.87-6.28,2.6-5.49,5.21-11.83,7.51-17.98,11.05-6.33,4.35-13.52,7.57-19.07,12.35-5.31,3.85-11.15,5.25-16.68,8.45-6.86,5-14.88,8.3-21.23,13.87-6.67,4.75-15.35,5.91-22.32,9.96-5.72,3.48-9.95,7.98-15.82,11.05-1.26-.17-10.72,4.62-10.66,4.55-1.62,4.6-5.79,8.9-10.16,11.5-3.21,2.22-6.69,6.06-9.51,8.43-.65.43-2.89-.87-2.53,1.52.72,4.48-2.33,6.69-3.76,9.97-.43,1.3,1.08,3.03-.43,4.12-2.73,2.64-2.12,5.14-3.47,8.73-.43,2.32-.87,4.49-1.08,5.36s-.83-.22-1.06,2.82-.89,4.98-.89,4.98c0,0-.65,1.52-1.08,2.82-.47,2.64.23,3.02-.19,4.98,1.05-.37,5.05-1.24,6.69-2.39,2.75-1.89,3.03-1.86,6.5-3.03,2.52-1.02,6.82-.79,9.1-.87,1.37-.99,7.86-.96,8.45-.87,4.57-.02,9.59.19,13.46,3.26.44.26.41,3.46.62,3.89.37,1.1,2.52,5.02,3.03,5.63v4.33s1.95-.43,2.82,0,2.82-.87,3.47,0,1.52.54,2.17,1.35,1.08,2.84,1.73,2.04,0-.29,1.95,0c1.95.29.69-.44,1.95.29,3.11,1.7,4.82,1.71,6.5,3.9,0,0,3.03-.43,3.68,0s-.43.87,1.73,0,2.24-.91,3.33-1.54,1.93-3,2.95-2.65c4.26-.18,9.04-5.12,11.92-7.08,2.18-2.23,5.68-3.95,8.57-5.86,3.42-5.72,8.46-7.04,13.74-9.74.87-.65,4.14-1.92,4.78-2.91s-1.92.49,2.43-2.03c8.9-5.18,12.03-6.9,19.22-12.18,8.86-7.83,12.65-6.43,23.4-7.8,3.6-2.58,8.94-5.47,13.22-6.72,1.81-1.56,5.89-4.1,8.02-5.2,0,0,2.17-2.82,2.17-2.82,0-2.18,0-7.92,0-10.18,0,0,1.52-6.5,1.52-7.15.74-5.6,4.35-13.98,4.55-19.5,0,0-.87-3.9-.87-3.9l-2.6-4.33c-1.68-3.71-4.47-8.57-5.42-12.57-.96-3.1-1.88-9.33-1.52-12.57-1.14-3.09-3.28-10.16-3.47-13.43-1.17-3.8-3.73-8.47-3.68-12.57l-2.38-1.08ZM82.55,246.61l5.63.22s3.68-.22,4.82-1.07,2.98,1.72,2.98,1.72c8.78-1.09,18.32.18,27.08.43,2.93.99,6.98,3.43,10.18,2.99l2.38,2.21,1.73,4.33c1.43,2.05,4.74,6.84,6.07,8.88,0,0,1.52,4.55,1.52,4.55l4.63,5.01,2.96,1.71,4.41.87v-1.95c2.78-4.07,4.41-9.98,5.56-14.73.85-3.04,2.94-8.11,2.77-11.7-.48-.65,1.78-3.9,1.78-3.9,2.2-5.8,4.06-11.67,5.85-17.77.74-2.67,1.89-5.14,2.82-7.37,0,0,1.73-4.77,1.73-4.77l2.38-2.65c1.17-3.16,2.46-8.97,4.33-12.08.93-3.68,3.69-8.06,4.77-11.7,0,0,1.98-4.98,1.98-4.98,0,0,0-3.78,0-3.78-4.53,2.6-9.92,6-15.2,7.68-2.27,1.32-4.34,4.11-6.28,5.42-4.32,1.17-10.77,3.56-15.52,4.96-1.62.94-6.16,2.96-7.22,4.15,0,0-1.73,1.08-2.38.93s-1.52,1.45-2.17,1.45c-1.87,1.27-4.79,4.2-7.37,5.42-2.35,1.57-6.3,1.97-8.23,3.9-2.88,1.94-5.25,3.64-7.37,5.63-2.5.84-5.59,2.91-8.45,4.55-4.11,3.29-9.03,8.23-12.99,11.32-6.36,1.93-14.13,7.44-20.38,9.7l5.2.43ZM193.37,182.37c-.38,2.8-1.63,6.54-2.46,9.59-.94,4.23-1.81,9.17-4.69,12.25-.71,1.62-2.43,6.5-3.09,8.88-1.81,3.98-2.72,5.39-4.39,10.07-1.14,2.6-.65,2.11-1.14,3.9-.77,2.82-2.38,3.95-3.74,6.34-.81,1.14-.65,2.11-.65,3.09-.39,3.01-2.34,7.56-3.09,10.56-1.44,2.31-.58,2.72-1.62,5.85-.83,3.61-.61,3.97-1.46,6.99-.21,1.98-.45,4.47-1.95,6.17-.81,1.46-.42,2.11-1.34,2.64s-.77.44-.77,1.74-.16,3.74,0,4.5c-.02,1.84,3.93,6.88,4.55,8.34-1.35.31-2.02,3.32-1.46,4.88.16,1.14,1.75.71,3.9,1.95s0,0-.26.97c-.36,1.96.26,3.1.09,5.11.33,1.05,2.76,1.72,2.76,1.72,12.1-5.63,21.62-12.55,33.01-20.27,7.58-4.84,13.03-8.17,20.35-13.7,7.07-4.82,14.4-7.62,21.38-12.83,4.16-3.03,8.4-3.68,11.21-7.89.81-1.23,2.27-.72,2.76-1.04,2.87-1.52,7.92-5.57,10.72-6.66.25-.4,5.87-3.77,6.82-4.71,2.11-1.3,7.03-3.11,8.61-4.55l1.46-3.74c-.21-1.01-3.43-2.61-4.22-3.09-2.28-.95-6.75-3.08-8.94-4.23-4.32-1.1-8.83-5.13-12.67-7.15-3.75-4.24-7.92-11.34-10.56-16.74-1.24-2.13-2.57-5.12-3.93-7.26-.33-.19-2.9-1.67-2.9-1.67-2.16-.97-8.97-2.01-11.21-2.44-2.79.37-8.67-.76-11.37-1.5-5.47.8-17.13-1.32-22.91-.29-.65.65-5.63,0-5.63,0,0,0-1.03,3.57-1.19,4.22ZM197.76,151.33c0,3.11-1.29,7.79-1.19,10.89,0,0-1.9,6.66-2.01,7.31-.08,1.26.05,4.33,0,5.52,1.34-.1,7.15.37,8.4,1.13,2.82-.29,6.49.24,10.07-.15,1.14-.32,1.14.32,2.44-.16s2.31.54,3.25,0,0,0,.16-.65c-.02-2.13.48-4.48-.74-6.66-.41-2.13.1-7.73-.07-9.75-1.14-1.11-.77-5.72-.81-7.31.63-1.33.98-4.07.81-5.52l-3.41-2.92s-3.57-1.14-4.06-1.14-4.22,1.46-5.21,1.66-2.76,1.59-2.76,1.59l-3.57.81-1.3,5.36ZM187.68,96.9c0,1.91,0,5.77,0,7.64.33.85,1.59,3.32,1.3,4.22-.16.69.68,4.75.98,6.01-.5,2.65-.78,4.93-.65,7.64.67,2.47,3.59,6.07,4.39,8.77.33.97,0,0,.82.81.93,1.76,1.53,3.73,2.06,5.52-.05.81.7.98,1.19,1.3s.32,3.09.32,3.09l.65,1.62h3.25c2.17-.74,5.72-3.1,7.96-3.74,1.18.19,5.33-.41,6.01.97l2.27,1.14c.48-1.35,1.47-2.05.91-3.9-.62-.41,3.25-11.93,2.01-10.24-.28-2.05,2.21-9.57,1.63-12.51-.09-1.84.1-3.89.49-4.87,2.68-1.34,3.97-5.41,6.17-7.64,1.06-4-5.26-4.53-8.94-6.01-2.28-.97-2.6-.97-3.58-1.14-4.07-.4-8.8-2.21-12.19-3.66-2.5-.76-7.63-2.1-10.18-2.68l-6.88,5.36v2.27ZM231.07,104.05c-1.72,2.25-2.76,5.6-5.15,7.31-.7,2.12-1.69,6.4-1.34,8.61-.33,2.03-1.15,4.77-1.95,6.99-.16.49,0,1.79,0,1.79-.54.74-.61,4.5-.65,5.2,0,0,.16,4.06.16,4.06l-1.14,3.9c-.74,1.73-2.32,5.72-1.85,7.64-.35,4.09.82,9.53,1.69,13.49,0,3.85,0,9.28,0,13.15,3.74-.18,9.29,1.1,13,1.67,2.18.18,8.6,1.09,10.55,2.35l1.31-.76c.65-2.21.38-3.31,2.76-1.59,3.98,8.69,10.61,17.39,13.97,26.35,1.82,2.03,6.36,5.27,9.1,6.6,1.7.63,5.44,3.58,6.99,4.22,2.76,1.33,10.16,4.45,13.65,5.04,1.22-.58,8.22-3.53,9.42-5.36,6.12-2.75,6.29-3.39,13.49-6.99,4.55-2.45,5.72-2.17,7.96-4.55,2.09-2.79,3.8-3.61,6.99-6.5,2.74-1.93,5.28-3.04,7.47-5.69.67-2.46-1.9-3.71-3.25-5.36-.65-.98-1.62-3.25-1.62-4.54s-.97-.5-1.95-1.8-.65-1.3-1.46-3.1c-2.47-6.62-6.59-10.76-8.77-17.7-.65-1.95,0,0-.16-.97s-1.14-.97-2.11-2.27c-3.12-4.83-6.49-6.6-11.37-10.07-1.95-1.79-3.25-1.46-4.22-1.62s.49-.81,0-2.44-1.14-1.95-1.79-2.27c-3.29-.92-7.21-2.25-9.91-5.36-2.84-2.32-6.79-4.8-7.31-8.77-.16-.81-2.28-3.09-2.28-3.9-.26-3.1-1.23-6.61-2.44-8.94l-6.66-3.41c-4.13-.72-9.85-2.61-14.46-3.58-7.29-1.35-18.76-4.89-26-4.39l-.65,3.57ZM282.52,113.04v5.74l2.17,2.38v2.92c1.2.63,3.17,2.97,4.01,4.33,2.12,1.61,3.61,1.96,5.63,3.9,1.91,2.4,5.46,3.37,7.37.87.33-1.83-.69-6.23-.76-7.91,1.25-.85.33-2.82.76-4.12.87-2.02,1.9-3.29,2.06-5.52-.35-2.46-1.03-4.82,0-7.15.76-.87.76-1.73.76-1.73-2.52.66-5,3.21-7.8,3.57-4.78.07-9.71,1.69-14.19,2.71ZM179.72,77.72l.65,2.6c-1.56,3.09,2.27,6.89,2.92,9.86-1.14,2.74,2.28.97,4.39-.22,3.47-2.77,8.48-6.68,12.62-4.66,3.03,2.67,7.75,4.08,11.27,5.85.76.32,1.19.97,2.49,1.08s.22-.87,2.27,0c4.89,1.99,7.14,3.63,12.13,4.55,3.86.59,7.62-1.36,10.72.12.97.53,5.09,2.04,5.52,2.37s-1.73,0,2.38,1.19,4.73,1.55,4.73,1.55c3.07-.73,7.02.74,10,2.03,2.35.67,6.23,1.62,8.45,1.62.74.86,6.54,1.78,7.04,2.06,1.2.2,7.68,1.35,8.45,1.41,3.41-.69,7.24-2.07,10.4-2.38,7.36-3.63,8.37-7.27,11.81-14.08,1.23-2.01,3.23-4.46,4.23-6.93.66-2.3,2.6-4.08,3.47-5.96.32-2.51,2.86-9.21,3.47-11.05,0,0-.87-3.57,0-5.31s1.08-3.03,1.08-3.03c-.46-2.41-.86-5.24-1.73-8.02-.33-.76-.54-2.17-.76-2.6-4.76-4.74.66-10.24.43-15.6-4.43.18-10.84-.18-15.38-.08-2.21-.33-5.67,1.17-7.8.62-.76-.22-6.28-.22-6.61-.22s-1.52-.96-2.27-.59c-4.68.66-11.59,1.51-15.71,2.32,0,0-.17,1.04-1.28.74-2.47-.37-4.75,0-7.17.35-5.05,2.11-11.85.94-16.63,3.13-3.93,1.53-8.02,6.85-12.3,7.38,0,0,1.61-.7-.71.41-2.32,1.11-5.25,2.3-5.25,2.3-1.47.79-4.09,3.06-5.63,3.9-4.54,2.31-10.15,5.15-14.66,7.3-1.82.87-4.17,3.08-6.24,4.09-4.59,2.67-11.27,5.59-16.04,7.46-.47-.14-3.25,1.68-3.47,1.63,0,0-1.3,1.52-1.3,1.52M321.41,51.24c.14,1.42,0,2.41,1.14,3.57.81.65,0,1.14.98,2.44s.81,1.62,1.3,2.44c.47,1.2-.71,5.2.49,6.66-.02,1.99-1.42,5.65-1.14,8.29-.03,3.49,0,2.68-1.14,5.36-.49,1.14-.06,1.79-1.46,2.6s0,0-.16.81-.81,1.3-1.19,2.44c-.67,1.72-2.34,4.02-2.71,6.01-.33,1.3-1.14,1.3-1.14,1.3,0,0-1.46,2.6-1.95,4.22-.79,2.22-2.13,1.72-2.92,3.74-.65.81-.65,1.3-.81,2.44-.12,1.47-2.76,3.93-1.95,5.58-1.48,2.37-3.42,4.16-2.92,7.58,0,1.62,0,0-.33,1.14-.35.73-.1,4.27-.97,4.39,0,0-.49,1.62-1.37,2.44s0,.97,0,.97c0,0,.88,1.14,1.37,2.76.59,1.77-.48,3.22,0,4.55.32.65-1.14,1.79-1.3,2.92s0,1.46,0,2.76c.77.93,3.92,3.27,5.69,3.25,2.27,2.93,5.22,5.35,8.77,7.64,1.46,1.08,3.42,2.37,3.27,4.23,1.85,1.77,2.54,4.55,4.04,6.5.48,1.18,3.73,5.99,5.2,8.12.16.65.49.81,1.46,2.28s.16.81.49,2.92c.76,4.18-.35,1.4,1.3,5.2,1.51,2.55,1.68,3.15,2.12,6.01.17,1.3,1.13.65,2.06,0s3.13-1.14,3.13-1.14c2.24-1.82,3.52-2.05,6.18-5.82,1.79-2.73,1.46-.84,1.46-.84,2.6-3.1,9.29-7.25,10.85-11.72.45-1.32,1.66-.96,2.15-1.93.19.36,1.98-5.39,2.6-4.31,0,0,2.11-3.81,4.39-7.55,2.27-3.74.97-1.62.97-1.62.48-1.86,2.07-5.6,3.41-7.96,1.75-9.09,1.82-16.8,6.17-25.51,1.46-2.6,0-2.11.49-3.25s.97-2.44,1.62-4c1.26-4.15-.26-6.93.65-11.11.42-2.24.17-8.79,2.11-10.72.47-2.05-.08-6.87-.16-9.1-2.36-5.8-6.53-12.56-8.45-18.52-5.99-7.33-3.7-6.26-14.79-12.19-6.66-3.57-2.11-.97-2.93-1.3s-1.14-.97-2.6-1.95-2.27-1.46-5.36-2.27c-8.35-3.55-14.35-4.56-24.05-4.22-3.9,0-.97,1.79-1.14,2.44-3.06,4.16-4.03,5.43-2.92,11.05Z"/>
  <g class="cls-2">
    <path class="cls-1" d="M62.45-254.3l-138.34,49.4s-101.72,91.43-101.72,94.9c0,26.86-37.58,71.52-18.63,120.9,15.33,39.93,51.24,59.54,62.83,65.86,29.57,16.14,57.53,18.47,72.36,18.63,30.57-.08,131.43,23.56,168.13-49.83.87-1.73,103.56-114.4,103.56-116.13s36.4-97.38,36.4-98.31-4.77-54.22-4.77-54.22l-89.16-41.17-90.67,9.97Z"/>
  </g>
</svg>